<?xml version="1.0" standalone="no"?><!DOCTYPE svg PUBLIC "-//W3C//DTD SVG 1.1//EN" "http://www.w3.org/Graphics/SVG/1.1/DTD/svg11.dtd"><svg t="1740471754069" class="icon" viewBox="0 0 4633 1024" version="1.1" xmlns="http://www.w3.org/2000/svg" p-id="2174" xmlns:xlink="http://www.w3.org/1999/xlink" width="904.8828125" height="200"><path d="M0 1023.201248h1024L1434.558502 0h-410.558502z" fill="#0093D0" p-id="2175"></path><path d="M954.50858 393.784711c-15.975039-7.98752-26.358814-23.962559-26.358814-42.333853 0-25.560062 20.767551-47.126365 47.126365-47.126365 25.560062 0 47.126365 20.767551 47.126365 47.126365 0 18.371295-11.182527 35.145086-27.157566 42.333853V407.363495c14.377535 1.597504 31.950078 7.188768 43.132605 12.780031 4.792512-0.798752 11.182527-0.798752 17.572543-0.798752 59.107644 0 100.642746 39.138846 100.642746 92.655226 0 33.547582-29.553822 63.900156-63.101404 63.900156s-63.900156-32.74883-57.510141-66.296412c0 0-3.195008 11.182527-3.195008 25.560063v169.335413c-1.597504 19.170047-27.157566 125.404056-146.970358 125.404056S740.443058 723.669267 738.845554 704.49922V535.163807c0-13.578783-3.99376-25.560062-3.99376-25.560063 6.390016 31.950078-24.76131 66.296412-57.51014 66.296412-33.547582 0-63.101404-30.352574-63.101404-63.900156 0-53.516381 41.535101-92.655226 100.642745-92.655226 6.390016 0 12.780031 0 17.572543 0.798752 10.383775-5.591264 28.75507-11.981279 43.132606-12.780031v-13.578784c-15.975039-7.98752-26.358814-23.962559-26.358815-42.333853 0-25.560062 20.767551-47.126365 47.126365-47.126365 26.358814 0 47.126365 20.767551 47.126365 47.126365 0 18.371295-11.182527 35.145086-27.157566 42.333853v17.572543c3.99376 1.597504 7.98752 2.396256 11.981279 4.792512 7.188768-15.975039 21.566303-27.956318 38.340094-33.547582v-14.377535c-15.975039-7.188768-27.157566-23.962559-27.157566-42.333853 0-25.560062 20.767551-47.126365 47.126365-47.126365 25.560062 0 47.126365 20.767551 47.126365 47.126365 0 18.371295-11.182527 35.145086-26.358815 42.333853v14.377535c16.773791 5.591264 31.151326 17.572543 38.340094 33.547582l11.981279-4.792512-3.195008-17.572543z" fill="#FFFFFF" p-id="2176"></path><path d="M1136.624025 512.798752c0-43.931357-29.553822-79.076443-91.057722-79.076443-40.736349 0-88.661466 34.346334-88.661467 121.410296v129.397816c17.572543-11.981279 42.333853-22.365055 55.113885-22.365054V541.553822c0-46.327613 33.547582-59.906396 48.723869-59.906396-8.786271 7.98752-14.377535 17.572543-14.377535 31.151326 0 24.76131 19.968799 44.730109 44.730109 44.730109 25.560062 0 44.730109-18.371295 45.528861-44.730109zM631.014041 512.798752c0-43.931357 29.553822-79.076443 91.057722-79.076443 40.736349 0 89.460218 34.346334 89.460218 121.410296v129.397816c-17.572543-11.981279-42.333853-22.365055-55.113884-22.365054V541.553822c0-46.327613-33.547582-59.906396-48.723869-59.906396 8.786271 7.98752 14.377535 17.572543 14.377535 31.151326 0 24.76131-20.767551 44.730109-44.730109 44.730109-26.358814 0-45.528861-18.371295-46.327613-44.730109z" fill="#ED1B2F" p-id="2177"></path><path d="M884.218409 811.531981c102.24025 0 125.404056-85.466459 128.599064-107.831513v-28.75507c-31.950078 7.98752-59.906396 24.76131-79.076443 50.321373-6.390016-29.553822-25.560062-54.315133-49.522621-71.088924-23.962559 15.975039-42.333853 41.535101-49.522621 71.088924-19.170047-25.560062-47.126365-42.333853-79.076443-50.321373v28.75507c2.396256 22.365055 25.560062 107.831513 128.599064 107.831513zM891.407176 358.639626v35.943837c17.572543 2.396256 32.74883 14.377535 38.340094 28.755071-20.767551 13.578783-37.541342 34.346334-45.528861 59.906396-7.98752-25.560062-24.76131-46.327613-45.528861-59.906396 6.390016-14.377535 20.767551-26.358814 38.340093-28.755071v-35.943837c-14.377535-3.195008-25.560062-16.773791-25.560062-31.950078 0-18.371295 15.176287-32.74883 32.74883-32.74883 18.371295 0 32.74883 14.377535 32.74883 32.74883 0 15.176287-11.182527 28.75507-25.560063 31.950078z" fill="#ED1B2F" p-id="2178"></path><path d="M801.148206 384.199688v37.541342c44.730109 8.786271 76.680187 55.912637 76.680187 99.843993v121.410297c-20.767551 11.981279-41.535101 36.74259-47.925117 56.711388-1.597504-1.597504-3.195008-3.99376-5.591264-5.591263V537.560062c0-47.126365-25.560062-95.051482-70.290171-110.227769 0 0 14.377535-6.390016 32.74883-6.390015V383.400936c-14.377535-3.195008-25.560062-15.975039-25.560063-31.950078 0-18.371295 14.377535-32.74883 32.74883-32.74883s32.74883 14.377535 32.74883 32.74883c0 15.975039-11.182527 28.75507-25.560062 32.74883zM981.666147 384.199688v36.74259c18.371295 0 32.74883 6.390016 32.74883 6.390015-45.528861 15.975039-70.290172 63.900156-70.290172 110.227769v156.555383l-5.591264 5.591263c-6.390016-20.767551-27.157566-45.528861-47.925117-56.711388V521.585023c0-43.931357 31.950078-91.057722 76.680188-99.843993V383.400936c-14.377535-3.195008-25.560062-15.975039-25.560063-31.950078 0-18.371295 14.377535-32.74883 32.74883-32.74883s32.74883 14.377535 32.74883 32.74883c0.798752 15.975039-10.383775 29.553822-25.560062 32.74883z" fill="#ED1B2F" p-id="2179"></path><path d="M1911.413417 222.053042h127.800312V343.463339h-127.800312V222.053042z m-178.920437 194.895476V391.388456H1853.104524v163.744149h59.107644V391.388456h127.001561v23.163806h59.107644V171.731669h-186.907956V75.082683H1853.104524v96.648986h-178.121685v245.216849h57.510141zM1853.104524 343.463339h-120.611544V222.053042H1853.104524V343.463339zM3367.753885 76.440562h60.69716v83.23794h199.4244v52.022715h-277.462465l-1.733292 57.230577h225.43975c-3.474571 55.489298-6.941154 119.653042-10.407738 171.675757-3.466583 46.822839-8.674446 69.363619-24.282059 83.23794-13.866334 12.14103-52.022715 15.607613-98.845554 22.548768-3.466583-22.548768-13.866334-41.622964-24.274071-62.430452 55.489298-3.466583 84.971232 1.733292 88.437816-29.481935 3.474571-29.473947 6.941154-76.304774 6.941154-133.527363h-166.475881c-12.14103 156.076131-76.304774 192.491232-135.268643 230.639625-13.866334-15.607613-26.007363-31.215226-45.08156-45.089547 128.327488-57.22259 126.586209-147.401685 128.327488-294.80337h-121.394321v-52.022715h197.691107c-1.733292 1.733292-1.733292-83.237941-1.733291-83.23794M4444.735101 254.690047l29.473947-43.348269c57.230577 29.473947 123.127613 60.689173 159.542715 84.971233 0 0-22.54078 27.740655-38.148393 46.822839-41.614977-31.215226-114.453167-67.630328-150.868269-88.445803m123.119626 91.912387v50.289422h-130.06078v83.229954h187.291357v52.030702h-433.538596V480.129797h182.083495V396.891856h-124.852918v-50.289422h319.077442z m-350.292668 1.733291c-8.674446-13.874321-22.54078-32.948518-32.948518-48.556131 41.614977-15.607613 116.186459-53.756006 154.334852-91.912387 0 0 36.423089 38.156381 38.156381 39.889673-22.548768 24.282059-110.986583 78.038066-159.542715 100.578845m157.809423-268.788018h60.689173v53.756006h178.616911v109.253292h-57.222589v-60.705149h-296.536662v62.43844h-57.230577V133.303713h169.942465c1.741279 0 1.741279-53.756006 1.741279-53.756006M2467.975788 315.483058h31.215226v-43.356256H2412.470515v-52.022715h102.320125v-41.614976h-249.72181v41.614976h97.112262v52.022715h-84.971232v41.614976h84.971232v72.838191h-105.778721v45.089547h265.321436v-45.089547h-107.512013V313.749766h50.289423l-34.689797 20.807488c13.874321 13.874321 29.481934 34.68181 39.889672 48.556131l34.68181-22.548767c-12.14103-13.866334-29.473947-34.68181-36.423089-45.08156M2233.869579 547.855975v-39.889672h306.936412v38.15638h55.497285v-449.138221h-416.197691v449.138221c0 1.733292 53.756006 1.733292 53.756006 1.733292z m308.669703-83.237941H2233.869579V145.532605h306.936412l1.733291 319.085429zM2948.728612 265.848612c-17.340905 26.007363-26.015351 43.348268-41.614977 64.163744h-46.830827l20.815476-10.407738c-8.674446-15.607613-31.215226-43.356256-39.889672-53.756006h107.512012z m6.933166 0h79.771358V470.464899c0 19.074197-8.666459 26.015351-32.948518 26.015351h-22.54078c10.39975 22.54078 19.074197 36.415101 26.007363 57.222589 39.889672-5.199875 55.497285-12.14103 65.897036-19.074196 12.14103-8.674446 19.074197-15.607613 19.074197-46.82284V222.492356H2922.713261v-38.148393h204.632262v-48.564119H2922.713261V78.565242h-57.22259V135.787832h-208.098846v48.556131h208.098846v38.148393h-166.475882v329.485179h53.756007V267.581903h84.971232l-39.881685 17.332918c10.39975 13.882309 22.54078 32.956505 31.215226 46.830826h-50.289422v41.614977h88.437816v36.423089h-102.320125v45.08156h102.320125v84.971232h52.022714V454.865273h104.045429v-45.089548h-104.045429v-36.415101H3012.892356v-41.614977h-53.756007c8.666459-10.407738 31.207239-36.423089 36.415102-43.356255l-39.889673-22.54078zM3806.692044 204.448549l-41.614977 6.933167c6.933167 27.748643 10.39975 50.29741 13.866334 67.638315l39.889672-8.674446c-1.733292-15.607613-8.674446-50.289423-12.141029-65.897036m26.015351 88.437816h-78.038066V190.582215h78.038066v102.320125z m38.148393 228.906334c17.340905 8.674446 32.948518 19.074197 46.822839 27.748643 34.68181-38.148393 62.430452-91.912387 60.689173-241.047364v-13.866334h43.356256l-3.466583 194.216537c0 34.68181 5.199875 46.822839 38.148393 48.564119h43.356256c15.607613 0 26.007363-22.548768 39.881685-71.104899-13.874321-6.933167-32.948518-17.340905-43.348269-27.748643-3.474571 20.815476-6.941154 41.614977-12.141029 46.82284-3.466583 3.466583-6.941154 1.733292-8.674447 1.733291-3.466583 0-5.199875-3.466583-3.466583-10.39975 0-52.030702 5.199875-227.173042 5.199875-227.173042h-147.393697v104.045429c0 78.038066-20.815476 138.735226-58.963869 168.21716m-65.897036-168.21716l-43.356256 5.199875c5.207863 26.015351 10.407738 64.163744 13.874321 83.237941l43.356256-10.399751c-1.733292-20.807488-10.407738-62.430452-13.874321-78.038065m-133.527364-60.697161v48.564119h36.423089v13.866333c-1.741279 67.630328-13.882309 121.394321-38.15638 157.809423 12.14103 10.39975 29.473947 26.007363 43.348268 39.881685 29.481934-43.348268 41.614977-91.904399 41.614977-211.565429h78.038065V471.503276c0 15.607613-8.666459 15.607613-53.756006 15.607613 10.407738 17.340905 13.874321 32.948518 17.340905 53.756006 64.163744-6.933167 83.237941-20.807488 83.23794-45.08156V148.959251h-65.897035c3.474571-15.607613 10.407738-45.089548 13.874321-57.230577-10.39975-3.466583-46.822839-8.666459-52.022715-10.39975-1.733292 15.607613-5.199875 43.348268-10.39975 67.630327h-57.230577v143.935102h-36.423089z m362.433698-135.260655V77.854353h-57.230577v79.771357h-83.229954v48.564118h232.36493v-48.564118h-91.904399zM4614.230265 913.085304V639.081435h-24.282059v194.224524l-175.14234-194.224524h-10.407738v273.995882h26.007363V722.327363l175.150328 190.757941h8.674446z m-232.372917 0l-69.371607-135.260655c29.481934-8.674446 58.963869-19.082184 58.963869-69.371607 0-52.022715-45.089548-69.363619-81.504649-69.363619h-95.370983v272.262589h41.614977v-131.794071h36.415101l67.630328 131.794071c-1.733292 1.733292 41.614977 1.733292 41.614976 1.733292z m-102.320125-152.60156h-45.08156V666.838066h45.08156c26.015351 0 46.822839 20.807488 46.822839 46.822839s-20.807488 46.822839-46.822839 46.822839m-253.180406 20.807488h135.260656v-24.282059h-135.260656v-90.179095h135.260656v-24.274072h-175.14234v270.529298h175.14234v-26.015351h-135.260656V781.291232z m-116.186458 131.794072h39.881685V639.081435h-39.881685v119.653042h-130.06078v-119.653042h-41.614977v273.995882h41.614977V783.016537h130.06078v130.06078z m-268.788019-246.255226h81.504649v-24.274072h-206.365554v24.28206h83.237941v246.247238h41.614977v-246.255226z m-142.20181 150.876256V639.089423h-24.282059v182.083494c0 39.889672-34.68181 67.630328-65.897036 67.630328-36.415101 0-72.830203-26.007363-72.830203-67.630328V639.089423h-39.881684v180.35819c0 48.548144 41.614977 95.370983 102.312137 95.370983 71.096911-1.733292 100.578846-57.230577 100.578845-97.112262m-230.639625-43.356256c0-78.038066-62.430452-140.46053-138.727239-140.46053s-138.735226 62.430452-138.735226 140.46053 62.430452 140.468518 138.735226 140.468518 138.727239-62.430452 138.727239-140.468518m-43.356256 1.733292c0 64.163744-43.348268 116.194446-95.370983 116.194446s-95.37897-52.030702-95.37897-116.194446c0-64.155757 43.348268-116.186459 95.370983-116.186459s95.37897 52.030702 95.37897 116.186459m-261.846864-98.845554v-32.948518c-159.542715-45.08156-171.683744 84.97922-119.653042 119.653042 20.807488 13.882309 55.489298 36.423089 76.296786 50.29741 48.556131 31.215226-6.941154 114.453167-100.578846 52.022715v36.423089c149.126989 52.014727 194.224524-71.104899 126.586209-123.127613-26.007363-19.074197-45.08156-32.948518-69.363619-46.82284-48.556131-29.473947-24.282059-98.845554 86.712512-55.497285m-329.48518 235.847488h46.814852l-83.229953-275.729173h-43.356256l-83.237941 275.729173h32.948518l24.28206-84.971232h81.496661l24.282059 84.971232z m-31.215226-109.253292h-69.371607l34.689797-117.91975 34.68181 117.91975z m-157.809423 109.253292h10.407738V640.822715h-24.282059v194.224524l-175.14234-194.224524h-10.407738v272.262589h26.015351V722.327363c-1.741279 0 173.409048 190.757941 173.409048 190.757941z m-286.128923 0h41.614976V639.081435h-41.614976v273.995882z m-83.237941 0h39.881685V639.081435h-39.881685v117.919751h-130.06078V639.089423h-39.889672v273.995881h39.889672V784.757816h130.06078v128.327488z m-287.870203 3.466584c36.423089 0 65.897036-6.933167 88.445804-12.14103v-31.215226c-24.282059 12.14103-43.356256 19.082184-69.371607 19.082184-152.60156 0-140.46053-230.639626-15.607613-230.639626 48.564119 0 69.371607 8.666459 84.97922 13.866334v-29.473947c-22.548768-5.207863-48.564119-8.674446-88.445804-8.674446-194.224524-1.733292-182.083495 279.195757 0 279.195757" fill="#002052" p-id="2180"></path></svg>