<?xml version="1.0" standalone="no"?><!DOCTYPE svg PUBLIC "-//W3C//DTD SVG 1.1//EN" "http://www.w3.org/Graphics/SVG/1.1/DTD/svg11.dtd"><svg t="1740472052661" class="icon" viewBox="0 0 4160 1024" version="1.1" xmlns="http://www.w3.org/2000/svg" p-id="6436" xmlns:xlink="http://www.w3.org/1999/xlink" width="812.5" height="200"><path d="M262.13806 844.980395c10.980392 6.078431 19.803921 20.117647 21.529412 34.784313a46.431372 46.431372 0 0 1-40.509804 51.098039c-25.215686 3.137255-49.098038-16.196078-51.490195-42.627451-2.235294-25.019607 13.333333-50.235293 40.313725-63.921567 40.470588-20.509804 94.274508-15.019608 134.98039 0 90.823528 33.411764 166.666664 119.52941 194.980389 162.941174-47.45098-170.666664-239.999996-320.901956-412.39215-244.980389-58.823528 25.882353-97.176469 85.098038-92.588234 148.352939 5.098039 71.529411 61.411764 132.509802 146.98039 133.372547 39.960784 0.431373 77.647058-17.803921 97.333331-43.921568 33.137254-43.999999 19.921568-112.705881-39.137254-135.098037z m611.764696 0c-10.941176 6.078431-19.803921 20.117647-21.568627 34.784313a46.509803 46.509803 0 0 0 40.509803 51.098039c25.294117 3.137255 49.215685-16.196078 51.490196-42.627451 2.27451-25.019607-13.254902-50.235293-40.274509-63.921567-40.431372-20.509804-94.235293-15.019608-134.941175 0-90.784312 33.411764-166.666664 119.52941-195.019605 162.941174 47.490195-170.666664 240.039212-320.901956 412.392151-244.980389 58.823528 25.882353 97.176469 85.098038 92.627449 148.352939-5.098039 71.529411-61.450979 132.509802-147.058821 133.372547-39.921568 0.431373-77.647058-17.803921-97.2549-43.921568-33.137254-43.999999-19.921568-112.705881 39.098038-135.098037zM568.569428 390.627461c158.98039 0 287.843133-82.784312 287.843132-184.901958 0-79.647058-78.431371-147.607841-188.431369-173.60784 130.078429 26.549019 224.274506 103.921567 224.274506 195.372546 0 105.019606-122.745096 180.313723-239.607839 197.60784-57.254901 8.470588-69.607842 10.352941-84.07843 25.921568-14.431372-15.568627-26.784313-17.45098-83.960783-25.921568C367.628255 407.803931 244.883158 332.509815 244.883158 227.490209c0-91.411763 94.196077-168.823527 224.274507-195.372546-109.960783 26-188.392154 93.960783-188.392154 173.60784 0 102.117645 128.823527 184.901958 287.764701 184.901958z m0 118.039214c29.568627-27.294117 68.588234-30.666666 102.784312-38 160.117645-34.117647 265.098035-118.274508 265.098035-224.745094 0-42.941176-18.196078-83.176469-49.843137-117.725488-52.549019-57.725489-142.70588-99.80392-249.019603-112.705881 196.549016 20.823529 346.352936 129.215684 346.352935 259.764702 0 116.549018-111.568626 202.196075-284.705878 250.039212-74.980391 20.823529-111.2549 34.745097-130.666664 67.80392-19.45098-33.058823-55.686274-46.980391-130.745096-67.843136-173.137252-47.843136-284.705878-133.450978-284.705878-249.999996 0-130.588233 149.803919-238.941173 346.431367-259.764702C393.11845 28.392173 303.04002 70.470603 250.491001 128.196093c-31.686274 34.509803-49.882352 74.784313-49.882352 117.725488 0 106.470587 105.058822 190.627448 265.098035 224.745094 34.274509 7.333333 73.294116 10.705882 102.862744 38z m0 178.627448c30.745098-61.529411 110.98039-93.882351 178.274507-115.921567 19.529411-6.431372 28.078431-9.137255 51.764705-18.039215 136.274508-51.490195 227.960781-147.372547 228.196075-257.098035 0-154.117645-179.764703-280.705878-410.313719-296.196074C907.628246 15.450996 1136.255693 169.960798 1136.255693 358.27452c0 125.999998-89.019606 231.215683-257.098035 301.019603-67.647058 28.117647-266.823525 86.62745-310.58823 293.450976-45.803921-207.411761-242.823526-265.333329-310.470583-293.450976C89.9812 589.490203 0.961594 484.274518 0.961594 358.27452 0.961594 169.960798 229.589041 15.450996 520.687076 0.039232 290.177275 15.529428 110.491004 142.117661 110.491004 296.235306c0.156863 109.725488 91.764704 205.60784 228.078427 257.098035 23.686274 8.901961 32.235294 11.607843 51.803921 18.039215 67.294117 22.039215 147.490194 54.392156 178.196076 115.921567zM460.530214 171.764719c0-60.35294 48.313725-109.2549 107.999998-109.2549 59.607842 0 107.921567 48.90196 107.921567 109.2549s-48.274509 109.215685-107.921567 109.215685c-59.686274 0-107.999998-48.862744-107.999998-109.215685M3212.687033 231.215699V170.549033h93.52941v-67.450979h69.764705v67.450979h105.725488v60.666666h-269.019603z m-119.372547-3.568628c11.490196 25.098039 21.803921 57.450979 29.215686 92.196077l-51.607843 16.431373c-5.019608-30.980392-17.686274-74.509803-26.862744-96.862744l49.254901-11.764706z m-58.784313 116.862744h100.941175v-131.764704h-100.941175v131.764704z m-58.470587 0V155.921582h69.058822c4.627451-17.647059 8.431372-40.784313 11.647059-60.470587l64.313724 8.235294c-4.705882 21.17647-9.137255 36.862745-13.019608 52.235293h85.764705V606.705889c0 27.254902-24 50.509803-51.843136 50.509803H3082.138015l-14.784313-60.392156 50.980391 0.27451c10.313725 0 17.137255-5.098039 17.137255-15.17647V400.823539h-100.980391c-0.352941 108.431371-14.352941 193.568624-42.313725 258.23529l-1.921568 4.509804-54.745097-39.490195 1.372549-3.019608c26.078431-54.941176 39.17647-127.215684 39.17647-216.862742v-3.372549h-39.529412V344.470599h39.529412z m67.764704 101.999998l48.627451-15.45098c10.784314 24.313725 21.490196 60.392156 30.823529 100.509802l-52.745098 14.156863c-8.470588-39.764705-17.803921-75.450979-26.705882-99.215685z m382.431367 136.509802c0 8.745098 3.72549 12.078431 11.529411 12.078431h5.843138c5.098039 0 8.313725-1.921569 10.196078-5.921568 2.823529-5.882353 6.666667-34.980392 9.294117-60.509803l58.392156 15.725489c-2.313725 12.745098-4.941176 34.274509-8.745098 49.411764-11.647059 46.431372-40.666666 57.647058-59.80392 57.647058H3399.785069c-14.078431 0-37.568627-15.17647-37.568627-43.647058v-273.725486l-48.470587-0.039215v66.470587c0 109.80392-18.588235 196.666664-59.372548 260.392153l-51.882352-46.431372c32.823529-45.921568 50.980391-125.647057 50.980391-234.352938V275.215698l172.823527-0.156863v307.96078M4159.236037 582.745105v63.137254H3625.785065v-63.137254h231.88235V490.627459H3681.745849V427.490206h426.235287v62.549018h-182.117644v92.705881h233.411761zM3701.196829 292.588247H3635.47134V155.176484h222.196075V102.392172h68.156861v52.823528h225.33333V292.588247h-65.725489V215.882366h-384.235288V292.588247z m289.764701 5.529412c0 17.137255 14.901961 27.921568 27.254902 27.921568h132.941174v59.999999h-160.549017c-33.333333 0-64.62745-29.411764-64.62745-62.117646V239.01962h64.980391V298.078443z m-335.176465 115.803919l-29.411764-63.686273c98.941175-13.568627 154.196076-48.784313 189.647056-115.058822l62.823528 27.019608c-43.45098 84.274508-123.725488 134.70588-223.05882 151.725487M1741.157644 171.176484L1706.451763 222.784326c-4-2.901961-59.098038-41.960784-105.960783-65.725489l34.039215-49.529411a748.274498 748.274498 0 0 1 106.627449 63.647058z m-23.764705 163.725488L1683.314508 389.607853c-12.156863-9.607843-80.588234-56.392156-116.862743-74.07843l32.039215-53.490195c33.058823 14.509804 97.333332 54.862744 118.823528 72.862744z m-53.058823 99.882351l59.568627 24.235294c-17.647059 49.647058-73.411764 165.254899-107.647057 210.588232l-59.411764-34.666666c34.313725-51.607842 86.07843-144.784311 107.490194-200.15686z m181.176468-279.215682h307.725485v51.843137h-336.745092A896.745084 896.745084 0 0 1 1758.608625 288.666678l-50.196078-34.235293c32.784313-41.254901 77.607842-102.627449 98.274508-156.862743l55.568627 19.803921c-5.019608 12.941176-10.666666 25.686274-16.745098 38.156863z m1.294118 235.294114H2059.78509l5.058824-99.333332h-206.745095c-2.862745 27.843137-6.862745 62.941175-11.372549 99.333332z m297.294113 151.333331v49.921568h-34.352941c-4.666667 52.862744-33.294117 73.843136-87.647058 73.843136h-40.156862l-10.470588-53.843136s26.352941 4.705882 42.588235 4.705882c20.549019 0 31.607843-6.392157 34.156862-24.705882h-291.215682c4.980392-28.235294 14.549019-90.980391 23.098039-152.549017h-37.843136V390.901971h43.999999c8.235294-61.764705 15.215686-122.470586 16.90196-150.039213h326.235289c-1.72549 35.254901-5.490196 93.176469-8.078431 150.039213h35.568627v48.745097h-37.882352c-1.764706 37.058823-3.764706 74.274509-5.333334 102.588234h30.431373z m-318.313721 0h134.745096a581.568618 581.568618 0 0 0-70.823528-62.588234l35.294117-38.156862a625.921559 625.921559 0 0 1 75.999999 63.215685l-32.352941 37.529411h83.098038c0.235294-4.470588 3.176471-59.372548 5.098039-102.588234H1840.961564c-4.784314 36.549019-10.745098 73.921567-15.17647 102.588234z m110.274508-247.921565c23.490196 17.843137 44.90196 35.882352 67.490195 57.17647l-35.764705 38.784313a839.764693 839.764693 0 0 0-68.039215-58.196077l36.313725-37.764706M2588.25567 380.196089c12.941176-24.627451 22.627451-47.058823 28.901961-67.098038h11.45098l41.529411 16.862744c-7.960784 20-15.529412 36.784313-22.862745 50.196078h57.254901v49.803921H2585.275278v42.823528h119.686273v49.215686H2585.275278v115.80392h-58.156862V522.000008h-121.960782v-49.215686h121.960782v-42.823528H2404.883124v-49.803921h63.411764A213.60784 213.60784 0 0 0 2445.27528 329.450991l43.843137-16.078431-115.450979 0.196079v337.843132h-59.254901V258.627463h210.980389V211.019621h-234.901957V155.686288h234.901957V103.372564h60.392156v52.313724h232.549016V211.019621h-232.549016v47.607842h210.980389v342.627446c0 24.627451-20.274509 50.117646-49.490195 50.117646h-60.627451l-13.921568-54.862744h50.588235c6.588235 0 14.27451-4.313725 14.274509-14.27451V312.901972l-108.98039 0.196079-132.235292 0.235294a351.372543 351.372543 0 0 1 27.45098 66.862744h64.431371M4087.941921 782.509808c-23.019607 0.392157-44.078431 11.960784-54.90196 30.313725a54.117646 54.117646 0 0 0 2.039216 56.941175c9.411765 14.705882 26.784313 26.862745 51.764705 36.156863 13.058823 4.901961 42.549019 18.862745 34.117646 43.725489-4.666667 13.529412-17.686274 22.549019-33.333333 22.862745-21.764706 0.392157-36.941176-18.313725-40.196077-36l-34.666667 6.666667c4.039216 22.980392 23.137255 64.274509 73.294117 64.274509 28.196078 0 45.45098-12.392157 55.019607-22.705882 11.215686-12.352941 17.921568-29.215686 17.921568-45.137255 0-28.431372-17.529411-49.764705-52.156862-63.176469-30.274509-11.764706-45.137254-23.803921-46.156862-36.666666-1.254902-16.235294 15.215686-24.039215 28.117647-22.941176 14.156863 1.058824 27.019607 9.098039 31.764705 20.588235l30.980392-15.098039c-10.980392-25.019607-35.294117-40.274509-63.607842-39.803921M3225.432131 790.274514v211.529408h34.666666v-181.60784h33.215686c15.490196 0 32.078431 12.588235 32.07843 31.411764 0 23.17647-19.72549 31.882352-32.156862 31.882352h-28.745097l79.137253 118.313724h40.627451l-66.235294-95.254901c22.078431-7.72549 41.372548-26.470588 41.372549-58.07843s-27.215686-58.196078-60.078431-58.196077h-73.882351M1731.157645 790.274514v81.960783h-94.509803v-81.960783h-34.784313v211.529408h34.784313v-97.999999h94.509803v97.999999h34.823528v-211.529408h-34.823528M2029.392934 790.274514h34.745097v211.529408h-34.745097v-211.529408zM3145.981152 790.274514h34.745097v211.529408h-34.745097v-211.529408zM3539.902714 790.274514h34.745097v211.529408h-34.745097v-211.529408zM2106.412541 1001.803922h34.35294v-141.333331c6.509804 6.470588 162.352939 150.352939 162.352939 150.352939v-220.549016h-35.254902v140.196076c-6.509804-6.509804-161.450978-150.313723-161.450977-150.313723v221.647055M2567.0792 1001.803922h34.431372v-141.333331c6.54902 6.470588 162.313723 150.352939 162.313723 150.352939v-220.549016h-35.294117v140.196076c-6.470588-6.509804-161.450978-150.313723-161.450978-150.313723v221.647055M3619.392909 1001.803922h34.35294v-141.333331c6.588235 6.470588 162.352939 150.352939 162.352939 150.352939v-220.549016h-35.215686v140.196076c-6.54902-6.509804-161.490194-150.313723-161.490193-150.313723v221.647055M1788.569408 1001.803922h38.117647l24.666666-50.941176h93.176469c1.098039 2.156863 24.666666 50.941176 24.666667 50.941176h37.607842l-109.137253-225.372546-109.098038 225.372546z m109.098038-150.98039c3.333333 6.980392 31.960784 68.196077 32.235293 68.666666H1866.059603c2.352941-4.980392 28.549019-61.882352 31.568627-68.666666M2326.687047 1001.803922h38.117646s23.72549-48.784313 24.705882-50.941176h93.176469l24.666667 50.941176h37.647058l-109.137253-225.372546-109.176469 225.372546z m109.176469-150.98039c3.254902 6.901961 31.490196 67.098038 32.156862 68.666666h-63.764705l31.607843-68.666666M2904.255665 1001.803922h38.078431l24.705882-50.941176h93.176469c1.098039 2.156863 24.666666 50.941176 24.666666 50.941176h37.607843l-109.137253-225.372546-109.098038 225.372546z m109.176469-150.98039l32.156862 68.666666H2981.74586l31.647058-68.666666M3410.961539 791.333337v210.470585h104.431371v-29.803921h-69.568626v-180.666664h-34.862745M3860.687023 790.196082v211.60784h130.078429v-29.960784h-95.137254v-70.90196h92.392156v-29.882352h-92.392156v-50.980391h95.137254v-29.882353h-130.078429" fill="#EE3224" p-id="6437"></path><path d="M262.13806 844.980395c10.980392 6.078431 19.803921 20.117647 21.529412 34.784313a46.431372 46.431372 0 0 1-40.509804 51.098039c-25.215686 3.137255-49.098038-16.196078-51.490195-42.627451-2.235294-25.019607 13.333333-50.235293 40.313725-63.921567 40.470588-20.509804 94.274508-15.019608 134.98039 0 90.823528 33.411764 166.666664 119.52941 194.980389 162.941174-47.45098-170.666664-239.999996-320.901956-412.39215-244.980389-58.823528 25.882353-97.176469 85.098038-92.588234 148.352939 5.098039 71.529411 61.411764 132.509802 146.98039 133.372547 39.960784 0.431373 77.647058-17.803921 97.333331-43.921568 33.137254-43.999999 19.921568-112.705881-39.137254-135.098037z m611.764696 0c-10.941176 6.078431-19.803921 20.117647-21.568627 34.784313a46.509803 46.509803 0 0 0 40.509803 51.098039c25.294117 3.137255 49.215685-16.196078 51.490196-42.627451 2.27451-25.019607-13.254902-50.235293-40.274509-63.921567-40.431372-20.509804-94.235293-15.019608-134.941175 0-90.784312 33.411764-166.666664 119.52941-195.019605 162.941174 47.490195-170.666664 240.039212-320.901956 412.392151-244.980389 58.823528 25.882353 97.176469 85.098038 92.627449 148.352939-5.098039 71.529411-61.450979 132.509802-147.058821 133.372547-39.921568 0.431373-77.647058-17.803921-97.2549-43.921568-33.137254-43.999999-19.921568-112.705881 39.098038-135.098037zM568.569428 390.627461c158.98039 0 287.843133-82.784312 287.843132-184.901958 0-79.647058-78.431371-147.607841-188.431369-173.60784 130.078429 26.549019 224.274506 103.921567 224.274506 195.372546 0 105.019606-122.745096 180.313723-239.607839 197.60784-57.254901 8.470588-69.607842 10.352941-84.07843 25.921568-14.431372-15.568627-26.784313-17.45098-83.960783-25.921568C367.628255 407.803931 244.883158 332.509815 244.883158 227.490209c0-91.411763 94.196077-168.823527 224.274507-195.372546-109.960783 26-188.392154 93.960783-188.392154 173.60784 0 102.117645 128.823527 184.901958 287.764701 184.901958z m0 118.039214c29.568627-27.294117 68.588234-30.666666 102.784312-38 160.117645-34.117647 265.098035-118.274508 265.098035-224.745094 0-42.941176-18.196078-83.176469-49.843137-117.725488-52.549019-57.725489-142.70588-99.80392-249.019603-112.705881 196.549016 20.823529 346.352936 129.215684 346.352935 259.764702 0 116.549018-111.568626 202.196075-284.705878 250.039212-74.980391 20.823529-111.2549 34.745097-130.666664 67.80392-19.45098-33.058823-55.686274-46.980391-130.745096-67.843136-173.137252-47.843136-284.705878-133.450978-284.705878-249.999996 0-130.588233 149.803919-238.941173 346.431367-259.764702C393.11845 28.392173 303.04002 70.470603 250.491001 128.196093c-31.686274 34.509803-49.882352 74.784313-49.882352 117.725488 0 106.470587 105.058822 190.627448 265.098035 224.745094 34.274509 7.333333 73.294116 10.705882 102.862744 38z m0 178.627448c30.745098-61.529411 110.98039-93.882351 178.274507-115.921567 19.529411-6.431372 28.078431-9.137255 51.764705-18.039215 136.274508-51.490195 227.960781-147.372547 228.196075-257.098035 0-154.117645-179.764703-280.705878-410.313719-296.196074C907.628246 15.450996 1136.255693 169.960798 1136.255693 358.27452c0 125.999998-89.019606 231.215683-257.098035 301.019603-67.647058 28.117647-266.823525 86.62745-310.58823 293.450976-45.803921-207.411761-242.823526-265.333329-310.470583-293.450976C89.9812 589.490203 0.961594 484.274518 0.961594 358.27452 0.961594 169.960798 229.589041 15.450996 520.687076 0.039232 290.177275 15.529428 110.491004 142.117661 110.491004 296.235306c0.156863 109.725488 91.764704 205.60784 228.078427 257.098035 23.686274 8.901961 32.235294 11.607843 51.803921 18.039215 67.294117 22.039215 147.490194 54.392156 178.196076 115.921567zM460.530214 171.764719c0-60.35294 48.313725-109.2549 107.999998-109.2549 59.607842 0 107.921567 48.90196 107.921567 109.2549s-48.274509 109.215685-107.921567 109.215685c-59.686274 0-107.999998-48.862744-107.999998-109.215685M3212.687033 231.215699V170.549033h93.52941v-67.450979h69.764705v67.450979h105.725488v60.666666h-269.019603z m-119.372547-3.568628c11.490196 25.098039 21.803921 57.450979 29.215686 92.196077l-51.607843 16.431373c-5.019608-30.980392-17.686274-74.509803-26.862744-96.862744l49.254901-11.764706z m-58.784313 116.862744h100.941175v-131.764704h-100.941175v131.764704z m-58.470587 0V155.921582h69.058822c4.627451-17.647059 8.431372-40.784313 11.647059-60.470587l64.313724 8.235294c-4.705882 21.17647-9.137255 36.862745-13.019608 52.235293h85.764705V606.705889c0 27.254902-24 50.509803-51.843136 50.509803H3082.138015l-14.784313-60.392156 50.980391 0.27451c10.313725 0 17.137255-5.098039 17.137255-15.17647V400.823539h-100.980391c-0.352941 108.431371-14.352941 193.568624-42.313725 258.23529l-1.921568 4.509804-54.745097-39.490195 1.372549-3.019608c26.078431-54.941176 39.17647-127.215684 39.17647-216.862742v-3.372549h-39.529412V344.470599h39.529412z m67.764704 101.999998l48.627451-15.45098c10.784314 24.313725 21.490196 60.392156 30.823529 100.509802l-52.745098 14.156863c-8.470588-39.764705-17.803921-75.450979-26.705882-99.215685z m382.431367 136.509802c0 8.745098 3.72549 12.078431 11.529411 12.078431h5.843138c5.098039 0 8.313725-1.921569 10.196078-5.921568 2.823529-5.882353 6.666667-34.980392 9.294117-60.509803l58.392156 15.725489c-2.313725 12.745098-4.941176 34.274509-8.745098 49.411764-11.647059 46.431372-40.666666 57.647058-59.80392 57.647058H3399.785069c-14.078431 0-37.568627-15.17647-37.568627-43.647058v-273.725486l-48.470587-0.039215v66.470587c0 109.80392-18.588235 196.666664-59.372548 260.392153l-51.882352-46.431372c32.823529-45.921568 50.980391-125.647057 50.980391-234.352938V275.215698l172.823527-0.156863v307.96078M4159.236037 582.745105v63.137254H3625.785065v-63.137254h231.88235V490.627459H3681.745849V427.490206h426.235287v62.549018h-182.117644v92.705881h233.411761zM3701.196829 292.588247H3635.47134V155.176484h222.196075V102.392172h68.156861v52.823528h225.33333V292.588247h-65.725489V215.882366h-384.235288V292.588247z m289.764701 5.529412c0 17.137255 14.901961 27.921568 27.254902 27.921568h132.941174v59.999999h-160.549017c-33.333333 0-64.62745-29.411764-64.62745-62.117646V239.01962h64.980391V298.078443z m-335.176465 115.803919l-29.411764-63.686273c98.941175-13.568627 154.196076-48.784313 189.647056-115.058822l62.823528 27.019608c-43.45098 84.274508-123.725488 134.70588-223.05882 151.725487M1741.157644 171.176484L1706.451763 222.784326c-4-2.901961-59.098038-41.960784-105.960783-65.725489l34.039215-49.529411a748.274498 748.274498 0 0 1 106.627449 63.647058z m-23.764705 163.725488L1683.314508 389.607853c-12.156863-9.607843-80.588234-56.392156-116.862743-74.07843l32.039215-53.490195c33.058823 14.509804 97.333332 54.862744 118.823528 72.862744z m-53.058823 99.882351l59.568627 24.235294c-17.647059 49.647058-73.411764 165.254899-107.647057 210.588232l-59.411764-34.666666c34.313725-51.607842 86.07843-144.784311 107.490194-200.15686z m181.176468-279.215682h307.725485v51.843137h-336.745092A896.745084 896.745084 0 0 1 1758.608625 288.666678l-50.196078-34.235293c32.784313-41.254901 77.607842-102.627449 98.274508-156.862743l55.568627 19.803921c-5.019608 12.941176-10.666666 25.686274-16.745098 38.156863z m1.294118 235.294114H2059.78509l5.058824-99.333332h-206.745095c-2.862745 27.843137-6.862745 62.941175-11.372549 99.333332z m297.294113 151.333331v49.921568h-34.352941c-4.666667 52.862744-33.294117 73.843136-87.647058 73.843136h-40.156862l-10.470588-53.843136s26.352941 4.705882 42.588235 4.705882c20.549019 0 31.607843-6.392157 34.156862-24.705882h-291.215682c4.980392-28.235294 14.549019-90.980391 23.098039-152.549017h-37.843136V390.901971h43.999999c8.235294-61.764705 15.215686-122.470586 16.90196-150.039213h326.235289c-1.72549 35.254901-5.490196 93.176469-8.078431 150.039213h35.568627v48.745097h-37.882352c-1.764706 37.058823-3.764706 74.274509-5.333334 102.588234h30.431373z m-318.313721 0h134.745096a581.568618 581.568618 0 0 0-70.823528-62.588234l35.294117-38.156862a625.921559 625.921559 0 0 1 75.999999 63.215685l-32.352941 37.529411h83.098038c0.235294-4.470588 3.176471-59.372548 5.098039-102.588234H1840.961564c-4.784314 36.549019-10.745098 73.921567-15.17647 102.588234z m110.274508-247.921565c23.490196 17.843137 44.90196 35.882352 67.490195 57.17647l-35.764705 38.784313a839.764693 839.764693 0 0 0-68.039215-58.196077l36.313725-37.764706M2588.25567 380.196089c12.941176-24.627451 22.627451-47.058823 28.901961-67.098038h11.45098l41.529411 16.862744c-7.960784 20-15.529412 36.784313-22.862745 50.196078h57.254901v49.803921H2585.275278v42.823528h119.686273v49.215686H2585.275278v115.80392h-58.156862V522.000008h-121.960782v-49.215686h121.960782v-42.823528H2404.883124v-49.803921h63.411764A213.60784 213.60784 0 0 0 2445.27528 329.450991l43.843137-16.078431-115.450979 0.196079v337.843132h-59.254901V258.627463h210.980389V211.019621h-234.901957V155.686288h234.901957V103.372564h60.392156v52.313724h232.549016V211.019621h-232.549016v47.607842h210.980389v342.627446c0 24.627451-20.274509 50.117646-49.490195 50.117646h-60.627451l-13.921568-54.862744h50.588235c6.588235 0 14.27451-4.313725 14.274509-14.27451V312.901972l-108.98039 0.196079-132.235292 0.235294a351.372543 351.372543 0 0 1 27.45098 66.862744h64.431371M4087.941921 782.509808c-23.019607 0.392157-44.078431 11.960784-54.90196 30.313725a54.117646 54.117646 0 0 0 2.039216 56.941175c9.411765 14.705882 26.784313 26.862745 51.764705 36.156863 13.058823 4.901961 42.549019 18.862745 34.117646 43.725489-4.666667 13.529412-17.686274 22.549019-33.333333 22.862745-21.764706 0.392157-36.941176-18.313725-40.196077-36l-34.666667 6.666667c4.039216 22.980392 23.137255 64.274509 73.294117 64.274509 28.196078 0 45.45098-12.392157 55.019607-22.705882 11.215686-12.352941 17.921568-29.215686 17.921568-45.137255 0-28.431372-17.529411-49.764705-52.156862-63.176469-30.274509-11.764706-45.137254-23.803921-46.156862-36.666666-1.254902-16.235294 15.215686-24.039215 28.117647-22.941176 14.156863 1.058824 27.019607 9.098039 31.764705 20.588235l30.980392-15.098039c-10.980392-25.019607-35.294117-40.274509-63.607842-39.803921M3225.432131 790.274514v211.529408h34.666666v-181.60784h33.215686c15.490196 0 32.078431 12.588235 32.07843 31.411764 0 23.17647-19.72549 31.882352-32.156862 31.882352h-28.745097l79.137253 118.313724h40.627451l-66.235294-95.254901c22.078431-7.72549 41.372548-26.470588 41.372549-58.07843s-27.215686-58.196078-60.078431-58.196077h-73.882351M1731.157645 790.274514v81.960783h-94.509803v-81.960783h-34.784313v211.529408h34.784313v-97.999999h94.509803v97.999999h34.823528v-211.529408h-34.823528M2029.392934 790.274514h34.745097v211.529408h-34.745097v-211.529408zM3145.981152 790.274514h34.745097v211.529408h-34.745097v-211.529408zM3539.902714 790.274514h34.745097v211.529408h-34.745097v-211.529408zM2106.412541 1001.803922h34.35294v-141.333331c6.509804 6.470588 162.352939 150.352939 162.352939 150.352939v-220.549016h-35.254902v140.196076c-6.509804-6.509804-161.450978-150.313723-161.450977-150.313723v221.647055M2567.0792 1001.803922h34.431372v-141.333331c6.54902 6.470588 162.313723 150.352939 162.313723 150.352939v-220.549016h-35.294117v140.196076c-6.470588-6.509804-161.450978-150.313723-161.450978-150.313723v221.647055M3619.392909 1001.803922h34.35294v-141.333331c6.588235 6.470588 162.352939 150.352939 162.352939 150.352939v-220.549016h-35.215686v140.196076c-6.54902-6.509804-161.490194-150.313723-161.490193-150.313723v221.647055M1788.569408 1001.803922h38.117647l24.666666-50.941176h93.176469c1.098039 2.156863 24.666666 50.941176 24.666667 50.941176h37.607842l-109.137253-225.372546-109.098038 225.372546z m109.098038-150.98039c3.333333 6.980392 31.960784 68.196077 32.235293 68.666666H1866.059603c2.352941-4.980392 28.549019-61.882352 31.568627-68.666666M2326.687047 1001.803922h38.117646s23.72549-48.784313 24.705882-50.941176h93.176469l24.666667 50.941176h37.647058l-109.137253-225.372546-109.176469 225.372546z m109.176469-150.98039c3.254902 6.901961 31.490196 67.098038 32.156862 68.666666h-63.764705l31.607843-68.666666M2904.255665 1001.803922h38.078431l24.705882-50.941176h93.176469c1.098039 2.156863 24.666666 50.941176 24.666666 50.941176h37.607843l-109.137253-225.372546-109.098038 225.372546z m109.176469-150.98039l32.156862 68.666666H2981.74586l31.647058-68.666666M3410.961539 791.333337v210.470585h104.431371v-29.803921h-69.568626v-180.666664h-34.862745M3860.687023 790.196082v211.60784h130.078429v-29.960784h-95.137254v-70.90196h92.392156v-29.882352h-92.392156v-50.980391h95.137254v-29.882353h-130.078429" fill="#EE3224" p-id="6438"></path></svg>