<?xml version="1.0" standalone="no"?><!DOCTYPE svg PUBLIC "-//W3C//DTD SVG 1.1//EN" "http://www.w3.org/Graphics/SVG/1.1/DTD/svg11.dtd"><svg t="1740472019053" class="icon" viewBox="0 0 1024 1024" version="1.1" xmlns="http://www.w3.org/2000/svg" p-id="5433" xmlns:xlink="http://www.w3.org/1999/xlink" width="200" height="200"><path d="M1.8944 307.2a534.8864 534.8864 0 0 0 55.7056 10.9056 238.9504 238.9504 0 0 0 58.2144 3.4304 109.056 109.056 0 0 1 86.4256 35.4304A1529.9072 1529.9072 0 0 0 343.04 464.0256c120.9344 76.8 218.88 8.8576 265.6256-116.5824 13.4144-35.4816 18.5344-40.2432 53.0944-40.2432h348.7744a20.0704 20.0704 0 0 1 13.4656 4.7616c-27.5456 15.6672-55.6544 30.72-83.2 46.3872a681.6768 681.6768 0 0 0-202.24 150.016 190.8736 190.8736 0 0 0-33.28 71.68c-8.3456 32.0512 19.8656 63.4368 59.5456 74.3424a281.6 281.6 0 0 0 140.8-2.7136c37.12-8.8576 74.24-19.7632 117.1456-31.3856a367.9744 367.9744 0 0 1-107.52 64.768c-159.3344 62.72-309.76 27.9552-449.9456-62.72C375.6544 562.8928 291.2256 494.7456 204.8 430.08A908.6464 908.6464 0 0 0 18.5344 321.536C12.1344 319.488 6.4 315.392 0 312.6784 0.6144 310.6304 1.28 309.248 1.8944 307.2z" fill="#0196DA" p-id="5434"></path></svg>