<?xml version="1.0" standalone="no"?><!DOCTYPE svg PUBLIC "-//W3C//DTD SVG 1.1//EN" "http://www.w3.org/Graphics/SVG/1.1/DTD/svg11.dtd"><svg t="1740471804656" class="icon" viewBox="0 0 4744 1024" version="1.1" xmlns="http://www.w3.org/2000/svg" p-id="3389" xmlns:xlink="http://www.w3.org/1999/xlink" width="926.5625" height="200"><path d="M1242.624 362.939733c-418.030933 11.605333-822.613333 106.461867-860.228267 240.913067-3.413333 12.253867-4.3008 24.302933-4.3008 36.625067 0 132.437333 276.616533 177.732267 576.034134 215.04 5.154133 0.6144 4.881067-3.413333 3.2768-6.382934a1595.392 1595.392 0 0 1-8.772267-15.4624c-1.194667-2.116267-2.4576-3.515733-6.724267-4.778666-163.84-41.642667-330.205867-102.570667-330.205866-159.3344 0-107.4176 278.766933-213.845333 596.1728-262.417067 10.513067-2.048 15.496533-3.9936 22.562133-9.591467 8.772267-6.997333 28.16-22.801067 36.352-29.457066 5.3248-4.437333 3.447467-5.802667 1.4336-5.7344-8.4992 0.170667-17.032533 0.341333-25.6 0.580266" fill="#1C1D80" p-id="3390"></path><path d="M780.1856 1011.438933c-217.1904-54.408533-432.366933-236.6464-398.4384-405.435733C431.2064 359.697067 762.538667 121.0368 1175.995733 8.942933 1185.3824 6.178133 1188.864 0 1176.917333 0H612.5568c-97.723733 0-118.920533 12.663467-156.7744 63.829333-20.138667 27.2384-188.996267 260.027733-265.216 365.021867-9.796267 12.526933-23.620267 25.873067-54.4768 25.873067H0c0 0.068267 0 0.136533 0.1024 0.2048 161.348267 455.714133 334.6432 563.131733 508.245333 563.131733h274.090667c3.857067 0 7.714133-4.164267-2.2528-6.621867" fill="#DE0112" p-id="3391"></path><path d="M3380.8384 94.8224v39.048533h-171.758933a29.184 29.184 0 0 0-29.184 29.184c0 16.042667 13.141333 29.0816 29.184 29.0816l83.968-0.8192-0.2048 71.236267c-4.096 113.117867-56.797867 181.589333-79.394134 210.7392l-6.178133 8.226133a28.433067 28.433067 0 0 0-11.1616 22.766934c0 16.0768 13.175467 29.184 29.149867 29.184 8.874667 0 18.7392-4.096 23.995733-10.103467-0.273067 0.136533 0.546133-0.4096 0.546133-0.4096 20.650667-16.349867 89.019733-80.759467 102.161067-226.304h185.1392c0 29.696-0.853333 64.6144-2.56 106.871467-3.003733 73.284267-53.623467 71.509333-78.097067 70.587733l-1.467733-0.068267c-21.333333-2.218667-53.3504-10.103467-53.521067-10.103466l-7.8848-0.9216a29.0816 29.0816 0 0 0-29.0816 29.149866 29.013333 29.013333 0 0 0 22.084267 28.228267c0 0.375467 30.856533 10.922667 59.528533 11.400533l5.7344 0.068267c36.522667 0.512 77.789867 1.194667 106.939734-27.0336 24.576-23.893333 36.864-64.580267 37.546666-124.3136 1.365333-24.644267 1.9456-64.068267 1.9456-86.596267 0-6.9632-0.034133-12.356267-0.170666-15.086933-1.2288-22.869333-18.6368-40.106667-40.209067-40.106667l-202.888533-0.273066v-47.104l260.096 0.785066a29.218133 29.218133 0 0 0 29.149866-29.0816 29.184 29.184 0 0 0-29.149866-29.184h-173.329067V94.071467c0-15.36-14.336-28.2624-30.856533-28.2624-16.384 0-30.071467 13.312-30.071467 29.013333M4326.877867 338.0224a29.218133 29.218133 0 0 0 0 58.368h144.554666v74.069333h-172.1344a29.218133 29.218133 0 0 0-29.115733 29.0816c0 16.042667 13.141333 29.149867 29.115733 29.149867h401.8176a29.184 29.184 0 0 0 29.0816-29.149867 29.184 29.184 0 0 0-29.0816-29.0816h-169.813333v-74.069333h144.622933c16.042667 0 29.184-13.175467 29.184-29.218133a29.218133 29.218133 0 0 0-29.184-29.149867h-349.047466zM4471.125333 95.880533v19.456h-149.947733a40.789333 40.789333 0 0 0-40.277333 40.5504l0.034133 0.989867v58.436267a29.0816 29.0816 0 1 0 58.1632 0V173.568h67.925333a83.694933 83.694933 0 0 1-2.389333 31.812267c-8.3968 29.457067-38.365867 50.039467-89.088 61.0304l-1.911467 0.341333a28.228267 28.228267 0 0 0-25.770666 28.194133c0 15.701333 14.0288 29.115733 30.72 29.115734l3.242666-0.238934c113.015467-10.376533 143.018667-69.358933 148.48-116.974933 1.399467-13.312 1.706667-27.7504 1.706667-33.28v-0.273067l57.002667 0.273067v105.813333a40.174933 40.174933 0 0 0 39.287466 40.106667h84.7872c44.032 0 62.600533-30.6176 62.737067-30.8224 3.345067-4.9152 5.051733-12.561067 5.393067-18.090667 0.8192-14.0288-5.3248-17.749333-11.912534-21.879466l-1.467733-1.024c-10.410667-6.519467-21.777067-4.471467-34.030933 6.075733-14.472533 12.356267-26.760533 10.478933-26.9312 10.478933l-49.595734-0.170666s-4.573867 0.136533-7.509333-2.798934c-1.774933-1.706667-2.696533-4.1984-2.696533-7.441066l0.136533-80.247467h78.370133l-6.280533 23.483733a30.139733 30.139733 0 0 0-0.9216 6.894934c0 5.0176 1.4336 10.001067 4.1984 14.506666 4.096 6.485333 10.513067 11.127467 18.193067 12.970667 15.701333 3.6864 34.133333-7.406933 37.717333-22.903467 0.477867-1.160533 11.741867-32.187733 11.332267-50.005333-0.4096-28.433067-14.199467-42.666667-42.052267-43.349333l-157.627733 0.2048v-19.490134c0-15.837867-13.653333-29.218133-29.969067-29.218133a29.0816 29.0816 0 0 0-29.0816 29.218133M2349.1584 150.801067c-4.061867 4.539733-5.632 10.820267-4.949333 18.5344l0.068266 0.6144c0 0.375467 0.512 5.12 0.8192 8.055466l-134.075733 0.4096c-12.014933 0-25.531733 9.489067-25.531733 23.210667 0 12.526933 11.127467 23.108267 24.2688 23.108267l141.5168 0.4096c8.533333 53.111467 19.831467 97.860267 34.372266 136.533333a802.986667 802.986667 0 0 1-42.530133 60.279467c-3.2768 3.413333-6.0416 14.165333-6.0416 22.3232 0 3.208533 0.375467 6.144 1.467733 7.850666a22.664533 22.664533 0 0 0 16.622934 11.6736c7.645867 1.024 15.598933-2.1504 22.254933-8.8064 6.485333-6.485333 10.24-12.526933 15.872-21.640533l14.813867-22.528c13.653333 26.5216 25.668267 44.100267 25.8048 44.305067 4.437333 7.099733 12.356267 11.639467 20.616533 11.639466 9.216 0 17.646933-5.4272 21.640533-13.7216l1.1264-2.218666c3.9936-7.645867 14.677333-27.9552 21.845334-70.212267v-0.136533c0.682667-9.079467-1.3312-16.554667-5.905067-21.845334a20.548267 20.548267 0 0 0-14.882133-6.894933c-9.181867-0.4096-19.6608 4.881067-22.050134 16.110933l-6.007466 26.555734c-3.140267-6.997333-11.400533-25.941333-12.0832-27.2384 22.2208-36.864 37.4784-71.133867 46.6944-104.516267 0.1024-0.3072 0.750933-8.669867 0.750933-8.669867a24.029867 24.029867 0 0 0-7.850667-16.315733 23.517867 23.517867 0 0 0-38.024533 10.922667c-0.170667 0.341333-12.151467 37.205333-23.074133 59.733333-6.690133-22.186667-12.629333-48.878933-18.500267-83.182933h78.0288c12.731733 0 23.04-10.581333 23.04-23.517867a23.278933 23.278933 0 0 0-23.04-23.620267h-12.3904c0.068267-0.887467 0.238933-1.774933 0.238933-2.389333a24.814933 24.814933 0 0 0-5.802666-16.213333l-2.8672-3.413334a25.053867 25.053867 0 0 0-35.191467-2.935466 13.653333 13.653333 0 0 0-4.778667 10.4448v0.341333c0 4.5056 2.525867 9.4208 5.870934 13.550933l-28.603734 0.341334c-0.341333-2.4576-1.604267-10.069333-1.604266-10.069334-1.809067-15.837867-9.796267-23.825067-23.825067-23.825066-7.509333 0-13.9264 2.4576-18.090667 6.9632" fill="#DE0112" p-id="3392"></path><path d="M2505.966933 465.885867c-0.1024 4.778667-2.4576 7.168-7.2704 7.168l-128.955733-0.341334-183.944533-0.341333c-4.3008 0-6.382933-2.184533-6.382934-6.997333l0.1024-317.6448c0-2.286933 0.546133-3.9936 1.6384-5.12 1.1264-1.058133 2.798933-1.570133 5.154134-1.570134l313.275733 0.1024c2.6624 0 4.4032 0.6144 5.666133 1.809067 0.989867 1.024 1.501867 2.6624 1.501867 4.7104l-0.785067 318.225067z m16.110934-380.177067l-0.1024-0.034133-357.512534 0.068266a40.823467 40.823467 0 0 0-40.106666 40.618667v360.925867a41.335467 41.335467 0 0 0 40.106666 40.96h357.512534a40.823467 40.823467 0 0 0 40.516266-40.618667c0.136533 0 0.136533-361.301333 0.136534-361.301333a40.618667 40.618667 0 0 0-40.5504-40.618667z" fill="#DE0112" p-id="3393"></path><path d="M2236.893867 328.157867h67.7888v-45.397334h-67.7888v45.397334z m109.090133-75.8784a21.504 21.504 0 0 0-19.933867-13.6192h-110.626133a21.504 21.504 0 0 0-16.7936 8.157866 22.528 22.528 0 0 0-4.9152 14.1312v89.224534l0.477867 4.5056c1.979733 10.24 10.922667 17.646933 21.162666 17.646933h110.6944l6.382934-0.9216a22.152533 22.152533 0 0 0 15.394133-21.128533V260.949333a21.7088 21.7088 0 0 0-1.8432-8.669866zM2308.778667 381.781333c-0.580267 0.136533-56.456533 18.056533-94.72 17.681067-18.1248-0.273067-27.136 12.1856-27.8528 23.790933a20.343467 20.343467 0 0 0 6.144 15.121067c5.700267 5.973333 13.892267 9.898667 21.026133 9.966933 65.7408 0.477867 115.370667-21.6064 115.780267-21.845333h0.1024c12.3904-5.7344 22.7328-19.592533 17.032533-33.792-8.533333-21.2992-37.239467-11.0592-37.546667-10.922667M1962.871467 345.565867a9.864533 9.864533 0 0 1-1.911467 6.178133c-1.1264 1.1264-2.730667 1.706667-4.778667 1.706667h-128.785066v-162.474667h127.7952c2.696533 0 4.573867 0.580267 5.768533 1.911467 1.3312 1.4336 1.467733 3.413333 1.467733 4.1984v0.546133l0.443734 147.217067v0.7168z m-193.9456 8.021333l-129.536-0.170667c-0.546133 0-5.8368-0.2048-6.212267-7.168V197.495467c0-0.682667 0.068267-3.140267 1.672533-4.846934 1.1264-1.2288 2.8672-1.706667 4.949334-1.706666l129.1264 0.238933v162.372267z m214.084266-221.047467H1827.669333V90.453333a29.354667 29.354667 0 0 0-58.743466 0v42.0864H1614.506667a40.7552 40.7552 0 0 0-40.379734 40.6528l0.068267 197.973334c0 22.186667 18.056533 40.413867 40.277333 40.618666l154.453334 0.2048v94.890667a29.354667 29.354667 0 0 0 58.709333 0v-94.685867l155.272533 0.341334a40.618667 40.618667 0 0 0 40.618667-40.618667V173.056c0-22.357333-18.158933-40.516267-40.516267-40.516267zM2915.84 330.786133l0.068267-28.603733h116.053333c0 3.003733-0.273067 25.531733-0.341333 28.603733h-115.780267z m0.068267-102.6048h116.053333c0 3.072-0.273067 25.736533-0.341333 28.740267h-115.780267l0.068267-28.706133z m-59.869867 28.842667h-117.4528l0.1024-28.7744h117.3504v28.740267z m0 74.069333h-117.4528l0.1024-28.672h117.3504v28.672z m246.6816 134.144h-0.068267a917.879467 917.879467 0 0 1-154.180266-85.504h96.699733c22.152533 0 40.1408-18.090667 40.1408-40.072533l-0.170667-2.730667v-3.072c0-18.432-0.341333-111.581867-0.341333-111.581866 0-21.538133-16.896-39.082667-38.468267-39.936l-132.266666-0.068267v-27.2384l172.885333-0.375467c16.247467 0 29.013333-12.288 29.013333-28.023466 0-15.701333-13.243733-28.4672-29.422933-28.4672h-172.475733v-5.495467a29.013333 29.013333 0 1 0-58.026667 0v5.461333H2683.562667a28.8768 28.8768 0 0 0-29.0816 28.4672c0 15.701333 13.175467 28.433067 29.0816 28.433067h172.4416v27.2384h-132.676267c-25.463467 0.9216-40.106667 15.530667-40.106667 40.311467l-0.136533 116.497066c0.2048 0.136533 0.2048 0.648533 0.2048 0.648534 0 22.152533 18.090667 40.1408 40.106667 40.1408l95.914666-0.1024c-54.818133 40.721067-154.8288 83.080533-155.989333 83.524266a29.252267 29.252267 0 0 0-15.906133 26.043734c0 16.042667 12.936533 29.047467 29.013333 29.047466l7.4752-1.024c1.3312 0 107.6224-32.017067 171.690667-101.7856 0.1024 8.260267 0 96.597333 0 96.597334 0 16.0768 13.4144 29.013333 29.354666 29.013333a28.842667 28.842667 0 0 0 28.842667-29.013333s0.068267-78.677333 0-98.952534c46.762667 52.5312 160.904533 104.106667 162.133333 104.6528 4.369067 2.730667 16.520533 4.369067 21.742934 4.369067 15.189333 0 27.101867-13.141333 27.101866-29.934933 0-12.1856-11.434667-21.947733-22.084266-27.067734zM4020.224 210.363733h-3.720533l-1.365334 0.238934-1.3312 0.136533c-20.2752 0-36.4544 17.1008-37.512533 39.799467v139.195733c-2.525867 58.026667-26.9312 92.091733-31.914667 98.372267-0.170667 0.068267-1.024 1.365333-1.024 1.365333l-0.750933 1.024c-0.443733 0.785067-5.051733 9.557333-5.051733 16.213333 0 15.5648 12.731733 28.330667 28.330666 28.330667a27.989333 27.989333 0 0 0 22.6304-11.264c0.1024-0.136533 48.7424-50.756267 48.7424-130.321067v-0.750933c0.1024-12.526933-0.6144-123.357867-0.6144-123.357867h49.390934l0.034133 152.2688v61.098667c0.238933 23.483733 14.813867 47.274667 42.325333 47.172267h34.7136c1.024 0.1024 29.7984 2.525867 45.1584-49.7664 0-0.170667 1.058133-4.3008 1.058134-4.3008l1.774933-10.786134 0.068267-1.774933c0.477867-5.802667 1.262933-18.158933-19.285334-24.439467-12.458667-3.822933-22.664533 1.6384-27.477333 14.609067l-2.901333 8.2944c-2.389333 8.0896-3.584 10.922667-7.850667 11.195733l-10.888533 0.1024V250.2656c0-0.4096-1.024-37.649067-39.048534-39.901867h-83.524266zM4025.6512 93.149867v33.9968h-52.974933c-16.930133 0-30.72 12.8-30.72 28.330666 0 15.701333 13.789867 28.501333 30.72 28.501334h180.155733c16.725333 0 30.5152-12.765867 30.5152-28.4672 0-15.5648-13.755733-28.3648-30.5152-28.3648h-70.2464c-0.068267-3.140267 0-34.167467 0-34.167467a28.535467 28.535467 0 0 0-28.501333-28.501333 28.535467 28.535467 0 0 0-28.4672 28.672M3876.0448 283.306667l-26.282667 0.136533a24.9856 24.9856 0 0 0 6.144-20.753067l-6.2464-39.867733a24.029867 24.029867 0 0 0-9.8304-16.554667 22.528 22.528 0 0 0-17.442133-3.4816c-11.810133 2.218667-19.899733 12.868267-19.899733 25.122134 0 1.365333 0.068267 2.730667 0.238933 4.232533l6.144 39.8336a28.330667 28.330667 0 0 0 4.5056 11.4688h-24.849067V184.251733l87.517867-0.136533V283.306667z m60.7232-0.273067h-2.798933V154.555733a28.808533 28.808533 0 0 0-28.330667-29.218133l-46.933333 0.170667c0.955733-3.618133 5.051733-19.899733 5.051733-19.899734l1.6384-4.369066a28.0576 28.0576 0 0 0-3.1744-21.333334 28.194133 28.194133 0 0 0-51.643733 7.611734s-8.977067 35.703467-9.659734 38.229333l-39.492266 0.2048c-0.273067-0.136533-1.160533-0.136533-1.160534-0.136533a28.842667 28.842667 0 0 0-28.433066 29.149866v128.546134c-16.110933 0.170667-29.184 12.629333-29.184 28.0576 0 15.291733 12.970667 27.784533 29.013333 27.921066l-0.136533 16.2816-0.2048 2.833067 0.068266 1.024a672.768 672.768 0 0 1-4.369066 64.512c-6.519467 55.022933-17.3056 76.731733-17.408 76.936533a45.602133 45.602133 0 0 0-1.877334 11.741867c0 15.4624 12.6976 28.0576 28.2624 28.0576 10.922667 0 21.060267-6.485333 25.668267-16.384 1.262933-2.286933 13.9264-25.8048 21.435733-93.627733l0.4096-4.130134c2.048-20.650667 3.618133-43.554133 4.437334-67.925333 0-0.2048 0.4096-14.336 0.4096-19.319467h20.6848v69.973334c0 15.2576 9.5232 26.350933 22.664533 26.350933 13.312 0 23.415467-11.332267 23.415467-26.350933v-70.314667l22.186666-0.068267v135.4752c0 2.389333-0.682667 4.164267-2.2528 5.5296-5.9392 4.9152-21.2992 2.218667-27.067733 1.262934l-3.106133-0.477867c-15.36 0.682667-25.770667 11.605333-25.770667 27.204267 0 12.3904 4.676267 16.349867 9.728 20.548266l1.297067 1.024c6.894933 5.973333 18.295467 6.417067 19.7632 6.314667 36.693333 1.4336 56.661333-2.901333 68.8128-14.711467 10.5472-10.308267 15.2576-26.794667 15.2576-53.179733V339.080533h2.798933c15.4624 0 26.8288-11.810133 26.8288-28.023466s-11.3664-28.023467-26.8288-28.023467z" fill="#DE0112" p-id="3394"></path><path d="M2451.490133 672.768c-4.846933 5.802667-7.2704 14.779733-7.2704 26.760533v154.282667l-89.770666-151.278933c-15.1552-25.736533-30.8224-38.775467-46.421334-38.775467-13.585067 0-23.210667 3.413333-28.637866 9.796267-5.358933 6.485333-7.850667 18.1248-7.850667 35.5328v207.6672c0 12.288 2.2528 21.4016 7.031467 27.0336 4.778667 5.905067 12.4928 8.874667 22.801066 8.874666 10.103467 0 17.783467-3.037867 22.7328-9.0112 5.0176-5.768533 7.3728-14.813867 7.3728-26.897066v-153.736534c6.3488 10.478933 93.730133 157.559467 93.730134 157.559467 8.3968 14.1312 15.4624 22.869333 21.572266 26.5216 6.007467 3.652267 14.336 5.563733 24.712534 5.563733 11.9808 0 20.5824-3.413333 25.531733-10.103466 4.881067-6.656 7.2704-17.954133 7.2704-34.577067v-208.452267c0-12.049067-2.389333-21.162667-7.2704-26.965333-4.778667-5.768533-12.4928-8.8064-22.664533-8.8064-10.24 0-17.92 3.072-22.869334 8.977067M2162.176 671.8464c-5.051733 5.393067-7.645867 13.5168-7.645867 24.302933v224.324267c0 10.4448 2.730667 18.432 7.748267 23.9616 5.051733 5.461333 12.765867 8.260267 22.664533 8.260267 10.103467 0 17.851733-2.798933 22.971734-8.260267 4.949333-5.256533 7.4752-13.312 7.4752-23.9616v-224.324267c0-10.581333-2.594133-18.807467-7.611734-24.1664-5.12-5.495467-12.8-8.192-22.869333-8.192-10.0352 0-17.681067 2.696533-22.7328 8.055467M2045.269333 671.8464c-4.983467 5.393067-7.5776 13.5168-7.5776 24.302933v75.0592h-111.172266v-75.093333c0-10.581333-2.56-18.773333-7.5776-24.132267-5.12-5.495467-12.868267-8.192-22.8352-8.192-10.103467 0-17.783467 2.696533-22.8352 8.055467-5.051733 5.393067-7.509333 13.5168-7.509334 24.302933v224.324267c0 10.4448 2.4576 18.432 7.509334 23.9616 5.051733 5.393067 12.731733 8.260267 22.8352 8.260267 10.069333 0 17.92-2.798933 22.903466-8.260267 5.051733-5.256533 7.509333-13.312 7.509334-23.9616V826.026667h111.172266v94.446933c0 10.5472 2.594133 18.568533 7.748267 23.9616 5.085867 5.461333 12.731733 8.260267 22.801067 8.260267 10.205867 0 17.988267-2.798933 23.074133-8.192 5.051733-5.3248 7.5776-13.346133 7.5776-24.029867v-224.324267c0-10.581333-2.594133-18.807467-7.748267-24.1664-5.188267-5.495467-12.834133-8.192-22.903466-8.192-10.1376 0-17.885867 2.696533-22.971734 8.055467M1609.864533 700.416c-23.688533 26.862933-35.7376 64.682667-35.7376 112.469333 0 44.4416 11.946667 79.872 35.293867 105.540267 23.415467 25.6 56.081067 38.570667 96.768 38.570667 19.319467 0 36.625067-2.6624 51.234133-7.7824a129.1264 129.1264 0 0 0 41.745067-25.122134c7.8848-7.168 14.336-15.1552 19.1488-23.6544 4.846933-8.738133 7.406933-16.896 7.406933-24.132266a26.2144 26.2144 0 0 0-8.635733-19.6608 29.696 29.696 0 0 0-20.821333-8.0896 29.7984 29.7984 0 0 0-14.779734 3.754666c-4.096 2.389333-8.8064 6.929067-13.7216 13.243734l-4.4032 7.68-6.280533 9.693866a50.244267 50.244267 0 0 1-19.8656 13.892267 75.537067 75.537067 0 0 1-27.784533 4.744533c-23.415467 0-41.608533-8.021333-54.237867-24.098133-12.629333-16.042667-19.114667-39.424-19.114667-69.154133 0-29.149867 6.417067-52.258133 19.012267-68.8128 12.561067-16.247467 30.037333-24.576 51.882667-24.576 10.376533 0 19.797333 1.706667 27.784533 5.12 7.9872 3.310933 15.018667 8.465067 20.855467 15.2576l5.461333 7.850666a45.397333 45.397333 0 0 0 20.343467 18.705067c4.437333 1.9456 9.147733 3.037867 14.062933 3.037867 8.8064 0 15.803733-2.730667 21.0944-8.0896 5.256533-5.256533 7.850667-12.3904 7.850667-21.162667 0-7.8848-2.4576-16.145067-7.509334-24.6784a78.848 78.848 0 0 0-20.753066-22.459733 129.9456 129.9456 0 0 0-40.0384-21.538134 145.2032 145.2032 0 0 0-46.318934-6.997333c-42.496 0-76.0832 13.653333-99.9424 40.448M2624.580267 841.557333l36.010666-110.592c3.072 9.250133 34.781867 106.257067 36.181334 110.592h-72.192z m161.041066 77.141334l-2.389333-7.7824-78.199467-216.644267c-4.778667-12.9024-9.9328-20.8896-15.7696-24.541867-5.905067-3.6864-14.848-5.393067-27.477333-5.393066-13.4144 0-22.6304 1.809067-28.4672 5.666133-5.7344 3.822933-10.752 11.9808-15.394133 25.019733l-76.834134 215.927467-2.2528 7.714133-0.682666 7.5776c0 8.0896 2.833067 14.711467 8.260266 19.5584a30.3104 30.3104 0 0 0 21.128534 7.406934 31.0272 31.0272 0 0 0 18.670933-5.4272c4.846933-3.6864 8.362667-9.216 10.8544-16.5888l12.356267-38.536534h105.130666c0.8192 2.321067 12.834133 38.570667 12.834134 38.570667 2.389333 7.441067 6.007467 13.038933 10.752 16.725333a30.378667 30.378667 0 0 0 18.363733 5.256534c8.738133 0 15.9744-2.491733 21.333333-7.406934a25.258667 25.258667 0 0 0 8.465067-19.5584s0.136533-4.778667-0.682667-7.5776zM4677.393067 672.768c-4.846933 5.802667-7.3728 14.779733-7.3728 26.760533v154.282667c-6.144-10.581333-89.7024-151.278933-89.7024-151.278933-15.1552-25.736533-30.788267-38.775467-46.421334-38.775467-13.653333 0-23.176533 3.413333-28.5696 9.796267-5.393067 6.485333-7.9872 18.1248-7.9872 35.5328v207.6672c0 12.4928 2.389333 21.333333 7.168 27.0336 4.7104 5.905067 12.3904 8.874667 22.801067 8.874666 10.0352 0 17.646933-3.037867 22.698667-9.0112 4.881067-5.870933 7.406933-14.813867 7.406933-26.897066v-153.736534c6.2464 10.376533 93.661867 157.559467 93.661867 157.559467 8.328533 14.1312 15.496533 22.869333 21.640533 26.487467 5.973333 3.6864 14.370133 5.597867 24.712533 5.597866 11.946667 0 20.514133-3.413333 25.3952-10.103466 4.949333-6.656 7.338667-17.954133 7.338667-34.577067v-208.452267c0-12.049067-2.491733-21.162667-7.168-26.965333-4.9152-5.768533-12.561067-8.8064-22.8352-8.8064-10.205867 0-17.851733 3.072-22.766933 8.977067M4002.816 667.5456c-13.482667 0-23.210667 3.2768-28.501333 9.796267-5.358933 6.5536-7.953067 18.193067-7.953067 35.771733v190.737067c0 17.5104 2.594133 29.0816 7.953067 35.566933 5.3248 6.485333 15.018667 9.796267 28.501333 9.796267h146.978133c10.5472 0 18.670933-2.286933 24.234667-6.8608 5.632-4.7104 8.533333-11.537067 8.533333-20.48 0-9.0112-2.798933-16.042667-8.2944-20.48-5.597867-4.5056-13.824-6.7584-24.507733-6.7584h-123.392v-68.266667h104.106667c10.4448 0 18.295467-2.116267 23.893333-6.485333 5.7344-4.334933 8.6016-10.717867 8.6016-18.944 0-8.567467-2.833067-15.1552-8.362667-19.456-5.461333-4.1984-13.448533-6.3488-24.132266-6.3488h-104.106667v-55.671467h116.0192c10.581333 0 18.7392-2.1504 24.234667-6.485333 5.666133-4.334933 8.6016-10.6496 8.6016-19.114667 0-8.6016-2.901333-15.2576-8.567467-19.694933-5.461333-4.437333-13.687467-6.621867-24.2688-6.621867h-139.537067zM3729.066667 668.091733c-9.6256 0-17.134933 2.321067-22.152534 6.656-5.085867 4.539733-7.68 11.127467-7.68 19.8656 0 8.738133 2.525867 15.36 7.509334 19.729067 4.778667 4.266667 12.3904 6.485333 22.289066 6.485333h56.081067v199.68c0 10.376533 2.6624 18.466133 7.68 23.927467 5.154133 5.495467 12.834133 8.226133 22.9376 8.226133 9.966933 0 17.646933-2.730667 22.664533-8.192 4.983467-5.3248 7.611733-13.312 7.611734-23.995733v-199.68h56.149333c9.659733 0 17.169067-2.2528 22.084267-6.656 5.051733-4.369067 7.543467-10.990933 7.543466-19.524267 0-8.738133-2.491733-15.325867-7.509333-19.8656-4.949333-4.334933-12.458667-6.656-22.1184-6.656h-173.124267zM2973.559467 667.5456c-13.585067 0-23.074133 3.2768-28.603734 9.796267-5.256533 6.5536-7.9872 18.193067-7.9872 35.771733v190.737067c0 17.5104 2.730667 29.0816 7.9872 35.566933 5.5296 6.485333 14.9504 9.796267 28.603734 9.796267h146.807466c10.581333 0 18.670933-2.286933 24.234667-6.8608 5.666133-4.7104 8.533333-11.537067 8.533333-20.48 0-9.0112-2.730667-16.042667-8.465066-20.3776-5.4272-4.608-13.653333-6.8608-24.302934-6.8608h-123.221333v-68.266667h103.936c10.308267 0 18.363733-2.116267 23.825067-6.485333 5.7344-4.334933 8.635733-10.717867 8.635733-18.909867 0-8.6016-2.833067-15.189333-8.430933-19.456-5.3248-4.232533-13.4144-6.382933-24.029867-6.382933h-103.936v-55.671467h115.882667c10.513067 0 18.705067-2.1504 24.132266-6.485333 5.632-4.334933 8.533333-10.6496 8.533334-19.114667 0-8.6016-2.901333-15.2576-8.533334-19.694933-5.4272-4.437333-13.6192-6.621867-24.132266-6.621867h-139.4688zM3490.372267 682.769067c-18.875733 14.9504-28.433067 36.078933-28.433067 62.907733 0 23.6544 6.5536 41.984 19.456 54.442667 12.868267 12.458667 37.717333 22.801067 73.898667 31.061333l3.959466 1.024c45.602133 10.4448 68.676267 23.586133 68.676267 39.150933 0 11.264-4.232533 19.626667-12.834133 25.326934-8.772267 5.8368-21.845333 8.738133-39.150934 8.738133-10.922667 0-20.48-1.570133-28.433066-4.744533a50.005333 50.005333 0 0 1-19.6608-14.574934l-7.850667-11.127466c-8.942933-13.653333-18.773333-20.5824-29.3888-20.5824a26.180267 26.180267 0 0 0-20.138667 8.465066 30.9248 30.9248 0 0 0-7.5776 21.435734c0 8.328533 2.594133 16.7936 7.748267 25.429333 4.949333 8.567467 11.946667 16.042667 20.343467 22.186667 12.458667 8.874667 25.531733 15.189333 38.7072 19.114666 13.175467 4.027733 29.0816 5.973333 47.104 5.973334 33.9968 0 61.2352-8.328533 80.964266-24.644267 19.797333-16.315733 29.7984-38.775467 29.7984-66.901333 0-15.2576-2.798933-28.4672-8.533333-39.048534a64.443733 64.443733 0 0 0-26.3168-26.282666 152.234667 152.234667 0 0 0-23.995733-10.205867 616.516267 616.516267 0 0 0-43.861334-12.0832l-17.8176-4.3008c-30.6176-7.168-46.08-17.7152-46.08-31.3344 0-10.1376 3.754667-17.8176 11.4688-23.552 7.816533-5.5296 19.114667-8.362667 33.518934-8.362667 10.001067 0 18.7392 1.365333 26.112 4.1984 7.0656 2.7648 13.038933 6.929067 17.749333 12.424534l5.461333 7.031466c9.557333 12.561067 19.797333 18.978133 30.276267 18.978134a27.682133 27.682133 0 0 0 19.8656-7.441067 26.555733 26.555733 0 0 0 7.441067-19.626667c0-7.304533-2.594133-15.086933-7.611734-23.313066a70.792533 70.792533 0 0 0-19.797333-20.6848 111.2064 111.2064 0 0 0-34.338133-16.2816 156.228267 156.228267 0 0 0-41.984-5.2224c-33.553067 0-60.0064 7.543467-78.7456 22.4256M4378.555733 780.663467c-6.4512 5.563733-16.964267 8.3968-31.061333 8.3968h-65.3312v-69.973334h67.9936c12.561067 0 22.1184 3.003733 28.5696 8.9088 6.280533 5.802667 9.489067 14.609067 9.489067 26.146134 0 12.151467-3.208533 20.992-9.659734 26.5216z m65.194667 117.077333a129.501867 129.501867 0 0 1-1.3312-16.861867l-1.160533-20.309333c-1.1264-12.868267-4.573867-23.313067-10.103467-31.0272-4.881067-6.929067-12.0832-11.741867-20.821333-15.4624 11.810133-4.5056 21.162667-11.912533 27.784533-22.459733 7.236267-11.502933 10.922667-26.077867 10.922667-43.3152 0-27.170133-7.5776-47.752533-22.528-60.893867-14.813867-13.243733-37.888-19.8656-68.573867-19.8656h-100.113067c-13.550933 0-23.1424 3.242667-28.4672 9.796267-5.393067 6.519467-7.9872 18.193067-7.9872 35.7376v207.394133c0 10.410667 2.491733 18.466133 7.441067 23.9616 5.188267 5.495467 12.8 8.226133 22.869333 8.226133 10.103467 0 17.8176-2.730667 22.9376-8.192 4.949333-5.290667 7.543467-13.4144 7.543467-23.995733v-79.394133h58.7776c14.097067 0 23.9616 2.4576 29.252267 7.3728 5.393067 4.8128 8.874667 18.261333 10.308266 39.936 1.911467 28.910933 5.461333 46.318933 10.8544 53.589333 5.3248 7.2704 14.472533 11.0592 26.999467 11.0592 9.079467 0 16.384-2.525867 21.981867-7.4752a26.2144 26.2144 0 0 0 8.362666-20.309333c0-2.594133-0.750933-6.997333-2.184533-13.4144l-2.798933-14.1312zM3271.953067 841.557333l35.976533-110.592c3.140267 9.250133 34.816 106.257067 36.215467 110.592h-72.192z m161.006933 77.141334c-0.887467-2.833067-2.321067-7.7824-2.321067-7.7824l-78.301866-216.644267c-4.7104-12.9024-9.898667-20.8896-15.701334-24.541867-5.905067-3.6864-14.882133-5.393067-27.511466-5.393066-13.380267 0-22.596267 1.809067-28.433067 5.666133-5.7344 3.822933-10.820267 11.9808-15.36 25.019733l-76.8 215.927467-2.321067 7.714133-0.682666 7.5776a25.258667 25.258667 0 0 0 8.226133 19.5584c5.461333 4.9152 12.4928 7.406933 21.162667 7.406934a31.163733 31.163733 0 0 0 18.670933-5.4272c4.8128-3.6864 8.3968-9.216 10.820267-16.5888l12.356266-38.536534h105.198934l12.8 38.570667c2.389333 7.441067 6.007467 13.038933 10.752 16.725333a30.344533 30.344533 0 0 0 18.363733 5.256534c8.738133 0 15.9744-2.491733 21.333333-7.406934a25.258667 25.258667 0 0 0 8.465067-19.5584s0.1024-4.778667-0.682667-7.5776z" fill="#1C1D80" p-id="3395"></path></svg>